<?xml version="1.0" standalone="no"?><svg xmlns="http://www.w3.org/2000/svg" viewBox="0 0 1440 320"><path fill="#cc0500" fill-opacity="1" d="M0,288L15,272C30,256,60,224,90,181.3C120,139,150,85,180,101.3C210,117,240,203,270,197.3C300,192,330,96,360,80C390,64,420,128,450,144C480,160,510,128,540,101.3C570,75,600,53,630,85.3C660,117,690,203,720,213.3C750,224,780,160,810,154.7C840,149,870,203,900,197.3C930,192,960,128,990,138.7C1020,149,1050,235,1080,229.3C1110,224,1140,128,1170,90.7C1200,53,1230,75,1260,106.7C1290,139,1320,181,1350,176C1380,171,1410,117,1425,90.7L1440,64L1440,320L1425,320C1410,320,1380,320,1350,320C1320,320,1290,320,1260,320C1230,320,1200,320,1170,320C1140,320,1110,320,1080,320C1050,320,1020,320,990,320C960,320,930,320,900,320C870,320,840,320,810,320C780,320,750,320,720,320C690,320,660,320,630,320C600,320,570,320,540,320C510,320,480,320,450,320C420,320,390,320,360,320C330,320,300,320,270,320C240,320,210,320,180,320C150,320,120,320,90,320C60,320,30,320,15,320L0,320Z"></path></svg>